<svg width="1440" height="1400" viewBox="0 0 1440 1400" fill="none" xmlns="http://www.w3.org/2000/svg">
<g filter="url(#filter0_f_96_2303)">
<circle cx="761" cy="700" r="500" fill="url(#paint0_radial_96_2303)" fill-opacity="0.6"/>
</g>
<g style="mix-blend-mode:overlay">
<path d="M647.07 467.16C438.617 491.539 284 581.015 284 687.665C284 813.07 497.781 914.731 761.493 914.731C1025.2 914.731 1238.99 813.07 1238.99 687.665C1238.99 577.564 1074.2 485.766 855.514 465" stroke="url(#paint1_angular_96_2303)" stroke-width="1.70856" stroke-linecap="round"/>
</g>
<g style="mix-blend-mode:overlay">
<path d="M647.07 468.76C438.617 493.138 284 582.615 284 689.264C284 814.669 497.781 916.33 761.493 916.33C1025.2 916.33 1238.99 814.669 1238.99 689.264C1238.99 579.164 1074.2 487.366 855.514 466.599" stroke="url(#paint2_angular_96_2303)" stroke-width="1.70856" stroke-linecap="round"/>
</g>
<g style="mix-blend-mode:overlay">
<path d="M871.746 472.28C1082.3 495.946 1238.99 585.903 1238.99 693.263C1238.99 818.668 1025.2 920.328 761.493 920.328C497.781 920.328 284 818.668 284 693.263C284 588.369 433.568 500.088 636.818 474.015" stroke="url(#paint3_angular_96_2303)" stroke-width="1.70856" stroke-linecap="round"/>
</g>
<g style="mix-blend-mode:overlay">
<path d="M620.587 482.643C425.655 511.231 284 597.579 284 699.66C284 825.065 497.781 926.726 761.493 926.726C1025.2 926.726 1238.99 825.065 1238.99 699.66C1238.99 594.27 1088 505.65 883.279 480.046" stroke="url(#paint4_angular_96_2303)" stroke-width="1.70856" stroke-linecap="round"/>
</g>
<g style="mix-blend-mode:overlay">
<path d="M900.791 491.204C1096.55 519.553 1238.99 606.094 1238.99 708.456C1238.99 833.861 1025.2 935.522 761.493 935.522C497.781 935.522 284 833.861 284 708.456C284 609.457 417.228 525.256 603.074 494.185" stroke="url(#paint5_angular_96_2303)" stroke-width="1.70856" stroke-linecap="round"/>
</g>
<g style="mix-blend-mode:overlay">
<path d="M536.195 297.756C173.801 340.138 -95 495.692 -95 681.102C-95 899.118 276.657 1075.85 735.119 1075.85C1193.58 1075.85 1565.24 899.118 1565.24 681.102C1565.24 489.693 1278.76 330.102 898.575 294" stroke="url(#paint6_angular_96_2303)" stroke-width="2.97033" stroke-linecap="round"/>
</g>
<g style="mix-blend-mode:overlay">
<path d="M536.195 300.536C173.801 342.918 -95 498.473 -95 683.882C-95 901.898 276.657 1078.63 735.119 1078.63C1193.58 1078.63 1565.24 901.898 1565.24 683.882C1565.24 492.473 1278.76 332.882 898.575 296.78" stroke="url(#paint7_angular_96_2303)" stroke-width="2.97033" stroke-linecap="round"/>
</g>
<g style="mix-blend-mode:overlay">
<path d="M926.794 306.656C1292.85 347.8 1565.24 504.19 1565.24 690.834C1565.24 908.85 1193.58 1085.59 735.119 1085.59C276.657 1085.59 -95 908.85 -95 690.834C-95 508.476 165.023 354.999 518.373 309.672" stroke="url(#paint8_angular_96_2303)" stroke-width="2.97033" stroke-linecap="round"/>
</g>
<g style="mix-blend-mode:overlay">
<path d="M490.155 324.672C151.266 374.372 -95 524.487 -95 701.955C-95 919.971 276.657 1096.71 735.119 1096.71C1193.58 1096.71 1565.24 919.971 1565.24 701.955C1565.24 518.735 1302.75 364.67 946.843 320.158" stroke="url(#paint9_angular_96_2303)" stroke-width="2.97033" stroke-linecap="round"/>
</g>
<g style="mix-blend-mode:overlay">
<path d="M977.289 339.556C1317.62 388.84 1565.24 539.292 1565.24 717.247C1565.24 935.263 1193.58 1112 735.119 1112C276.657 1112 -95 935.263 -95 717.247C-95 545.139 136.616 398.756 459.709 344.739" stroke="url(#paint10_angular_96_2303)" stroke-width="2.97033" stroke-linecap="round"/>
</g>
<defs>
<filter id="filter0_f_96_2303" x="61" y="0" width="1400" height="1400" filterUnits="userSpaceOnUse" color-interpolation-filters="sRGB">
<feFlood flood-opacity="0" result="BackgroundImageFix"/>
<feBlend mode="normal" in="SourceGraphic" in2="BackgroundImageFix" result="shape"/>
<feGaussianBlur stdDeviation="100" result="effect1_foregroundBlur_96_2303"/>
</filter>
<radialGradient id="paint0_radial_96_2303" cx="0" cy="0" r="1" gradientUnits="userSpaceOnUse" gradientTransform="translate(726 785) rotate(89.2284) scale(594.054)">
<stop stop-color="#2954A3"/>
<stop offset="1" stop-color="#0F103F"/>
</radialGradient>
<radialGradient id="paint1_angular_96_2303" cx="0" cy="0" r="1" gradientUnits="userSpaceOnUse" gradientTransform="translate(768.381 709.459) scale(508.767 237.904)">
<stop offset="0.458333" stop-color="white"/>
<stop offset="0.717799" stop-color="white" stop-opacity="0"/>
<stop offset="0.782437" stop-color="white" stop-opacity="0"/>
<stop offset="1" stop-color="white" stop-opacity="0.4"/>
</radialGradient>
<radialGradient id="paint2_angular_96_2303" cx="0" cy="0" r="1" gradientUnits="userSpaceOnUse" gradientTransform="translate(768.381 711.059) scale(508.767 237.905)">
<stop offset="0.458333" stop-color="white"/>
<stop offset="0.717799" stop-color="white" stop-opacity="0"/>
<stop offset="0.782437" stop-color="white" stop-opacity="0"/>
<stop offset="1" stop-color="white" stop-opacity="0.4"/>
</radialGradient>
<radialGradient id="paint3_angular_96_2303" cx="0" cy="0" r="1" gradientUnits="userSpaceOnUse" gradientTransform="translate(768.381 715.825) scale(508.767 237.015)">
<stop offset="0.458333" stop-color="white"/>
<stop offset="0.717799" stop-color="white" stop-opacity="0"/>
<stop offset="0.782437" stop-color="white" stop-opacity="0"/>
<stop offset="1" stop-color="white" stop-opacity="0.4"/>
</radialGradient>
<radialGradient id="paint4_angular_96_2303" cx="0" cy="0" r="1" gradientUnits="userSpaceOnUse" gradientTransform="translate(768.381 722.847) scale(508.767 236.29)">
<stop offset="0.458333" stop-color="white"/>
<stop offset="0.717799" stop-color="white" stop-opacity="0"/>
<stop offset="0.782437" stop-color="white" stop-opacity="0"/>
<stop offset="1" stop-color="white" stop-opacity="0.4"/>
</radialGradient>
<radialGradient id="paint5_angular_96_2303" cx="0" cy="0" r="1" gradientUnits="userSpaceOnUse" gradientTransform="translate(768.381 732.721) scale(508.767 235.041)">
<stop offset="0.458333" stop-color="white"/>
<stop offset="0.717799" stop-color="white" stop-opacity="0"/>
<stop offset="0.782437" stop-color="white" stop-opacity="0"/>
<stop offset="1" stop-color="white" stop-opacity="0.4"/>
</radialGradient>
<radialGradient id="paint6_angular_96_2303" cx="0" cy="0" r="1" gradientUnits="userSpaceOnUse" gradientTransform="translate(747.095 718.992) scale(884.489 413.596)">
<stop offset="0.458333" stop-color="white"/>
<stop offset="0.717799" stop-color="white" stop-opacity="0"/>
<stop offset="0.782437" stop-color="white" stop-opacity="0"/>
<stop offset="1" stop-color="white" stop-opacity="0.4"/>
</radialGradient>
<radialGradient id="paint7_angular_96_2303" cx="0" cy="0" r="1" gradientUnits="userSpaceOnUse" gradientTransform="translate(747.095 721.772) scale(884.489 413.596)">
<stop offset="0.458333" stop-color="white"/>
<stop offset="0.717799" stop-color="white" stop-opacity="0"/>
<stop offset="0.782437" stop-color="white" stop-opacity="0"/>
<stop offset="1" stop-color="white" stop-opacity="0.4"/>
</radialGradient>
<radialGradient id="paint8_angular_96_2303" cx="0" cy="0" r="1" gradientUnits="userSpaceOnUse" gradientTransform="translate(747.095 730.058) scale(884.489 412.049)">
<stop offset="0.458333" stop-color="white"/>
<stop offset="0.717799" stop-color="white" stop-opacity="0"/>
<stop offset="0.782437" stop-color="white" stop-opacity="0"/>
<stop offset="1" stop-color="white" stop-opacity="0.4"/>
</radialGradient>
<radialGradient id="paint9_angular_96_2303" cx="0" cy="0" r="1" gradientUnits="userSpaceOnUse" gradientTransform="translate(747.095 742.266) scale(884.489 410.79)">
<stop offset="0.458333" stop-color="white"/>
<stop offset="0.717799" stop-color="white" stop-opacity="0"/>
<stop offset="0.782437" stop-color="white" stop-opacity="0"/>
<stop offset="1" stop-color="white" stop-opacity="0.4"/>
</radialGradient>
<radialGradient id="paint10_angular_96_2303" cx="0" cy="0" r="1" gradientUnits="userSpaceOnUse" gradientTransform="translate(747.095 759.432) scale(884.489 408.618)">
<stop offset="0.458333" stop-color="white"/>
<stop offset="0.717799" stop-color="white" stop-opacity="0"/>
<stop offset="0.782437" stop-color="white" stop-opacity="0"/>
<stop offset="1" stop-color="white" stop-opacity="0.4"/>
</radialGradient>
</defs>
</svg>
